External Loads File
version=1
nRows=70
nColumns=13
Range=5.000000e-03-10 seconds
endheader
time 	forceRightX 	forceRightY 	forceRightZ 	pointRightX 	pointRightY 	pointRightZ 	forceLeftX 	forceLeftY 	forceLeftZ 	pointLeftX 	pointLeftY 	pointLeftZ 		
2.505000 76.708237 377.243378 -0.000000 0.194901 0.149008 -0.102631 -65.105297 -19.311566 -0.000000 0.174279 0.490069 -0.342286
2.510000 78.909137 348.297671 -0.000000 0.188687 0.148625 -0.102588 -67.156989 -4.373613 -0.000000 0.179511 0.491036 -0.342479
2.515000 79.811255 317.080242 -0.000000 0.182601 0.148555 -0.102519 -68.797717 10.675492 -0.000000 0.184503 0.491659 -0.342599
2.520000 79.889930 284.053981 -0.000000 0.176255 0.148792 -0.102521 -70.039465 26.048274 -0.000000 0.189437 0.492435 -0.342842
2.525000 78.733158 250.054067 -0.000000 0.170093 0.149348 -0.102257 -70.940424 41.989437 -0.000000 0.194204 0.492425 -0.343077
2.530000 76.660665 215.780439 -0.000000 0.163836 0.150066 -0.102134 -71.526034 59.097305 -0.000000 0.198947 0.492127 -0.343233
2.535000 73.651005 182.023559 -0.000000 0.157425 0.151104 -0.102451 -71.859485 77.983721 -0.000000 0.203497 0.491377 -0.343625
2.540000 69.668715 149.554830 -0.000000 0.151192 0.152393 -0.102363 -72.071907 99.220926 -0.000000 0.207938 0.490318 -0.344185
2.545000 64.759097 119.067874 -0.000000 0.144996 0.153951 -0.102597 -72.394693 123.241047 -0.000000 0.211848 0.488848 -0.344473
2.550000 59.303899 90.976911 -0.000000 0.139035 0.155705 -0.102482 -72.848249 150.393244 -0.000000 0.215828 0.486939 -0.344847
2.555000 53.391608 65.691542 -0.000000 0.133358 0.157704 -0.102320 -73.858493 180.494643 -0.000000 0.219506 0.484783 -0.345027
2.560000 47.396896 43.229229 -0.000000 0.127800 0.160022 -0.102467 -75.428609 213.244516 -0.000000 0.223428 0.482549 -0.345437
2.565000 41.468260 23.541015 -0.000000 0.122360 0.162563 -0.102645 -77.934149 247.867662 -0.000000 0.227329 0.479728 -0.345743
2.570000 35.759788 6.404694 -0.000000 0.117194 0.165337 -0.102523 -81.812395 283.333210 -0.000000 0.231236 0.476579 -0.346164
2.575000 30.420318 -8.535892 -0.000000 0.112227 0.168367 -0.102440 -87.287773 318.506892 -0.000000 0.235140 0.473064 -0.346319
2.580000 25.541856 -21.703727 -0.000000 0.107301 0.171615 -0.102378 -94.081345 352.338455 -0.000000 0.239225 0.469010 -0.346539
2.585000 21.216780 -33.441484 -0.000000 0.102463 0.175184 -0.102408 -102.637452 383.678450 -0.000000 0.243406 0.465264 -0.346706
2.590000 17.452664 -44.097852 -0.000000 0.097631 0.178997 -0.102386 -112.438028 411.837066 -0.000000 0.247587 0.460933 -0.347086
2.595000 14.210172 -53.877471 -0.000000 0.092784 0.183172 -0.102498 -123.090170 436.343784 -0.000000 0.251981 0.456322 -0.347401
2.600000 11.470469 -62.826329 -0.000000 0.087965 0.187556 -0.102610 -134.623372 456.889521 -0.000000 0.256319 0.451313 -0.347541
2.605000 9.209013 -70.853484 -0.000000 0.083212 0.192141 -0.102804 -147.108584 473.421077 -0.000000 0.260674 0.446428 -0.347483
2.610000 7.278961 -77.764841 -0.000000 0.078577 0.196889 -0.102958 -159.889139 486.343830 -0.000000 0.265227 0.441389 -0.347355
2.615000 5.622261 -83.284824 -0.000000 0.074082 0.201993 -0.103137 -172.876020 496.049592 -0.000000 0.269539 0.436081 -0.347314
2.620000 4.207344 -87.138151 -0.000000 0.069795 0.207298 -0.103196 -185.768528 503.053998 -0.000000 0.273796 0.430579 -0.347435
2.625000 3.018197 -89.116725 -0.000000 0.065686 0.212920 -0.103253 -197.910704 508.017235 -0.000000 0.278036 0.424798 -0.347494
2.630000 2.271953 -89.129377 -0.000000 0.061660 0.218623 -0.103385 -209.666531 511.210029 -0.000000 0.281984 0.418925 -0.347515
2.635000 2.042417 -87.237834 -0.000000 0.057883 0.224538 -0.103408 -220.458539 513.280319 -0.000000 0.285754 0.412802 -0.347723
2.640000 2.408518 -83.625544 -0.000000 0.054095 0.230714 -0.103255 -229.694046 514.964509 -0.000000 0.289853 0.406669 -0.347227
2.645000 3.677315 -78.544984 -0.000000 0.050535 0.237079 -0.103251 -238.228237 516.412051 -0.000000 0.293500 0.400344 -0.346838
2.650000 5.905099 -72.291112 -0.000000 0.047041 0.243709 -0.103241 -245.693768 518.311398 -0.000000 0.296776 0.393817 -0.347193
2.655000 9.201216 -65.163309 -0.000000 0.043595 0.250358 -0.103516 -252.678830 520.853442 -0.000000 0.299938 0.387290 -0.347175
2.660000 13.412383 -57.467504 -0.000000 0.040257 0.257308 -0.103643 -258.628887 524.661043 -0.000000 0.302955 0.380578 -0.347137
2.665000 18.459707 -49.468424 -0.000000 0.037190 0.264271 -0.103784 -264.283066 529.616685 -0.000000 0.305814 0.373737 -0.347024
2.670000 24.112920 -41.428137 -0.000000 0.034411 0.271472 -0.103885 -269.559218 535.923864 -0.000000 0.308328 0.366826 -0.347001
2.675000 30.144258 -33.581540 -0.000000 0.031886 0.278657 -0.103906 -274.654022 543.589076 -0.000000 0.310537 0.359727 -0.347485
2.680000 36.264186 -26.159510 -0.000000 0.029624 0.285948 -0.103929 -279.423490 552.716962 -0.000000 0.312838 0.352550 -0.347217
2.685000 42.161854 -19.337784 -0.000000 0.027645 0.293387 -0.103830 -284.180644 563.099572 -0.000000 0.314564 0.345389 -0.347025
2.690000 47.467693 -13.307822 -0.000000 0.025930 0.300917 -0.103781 -288.428009 574.880404 -0.000000 0.316109 0.338056 -0.346944
2.695000 51.849272 -8.153281 -0.000000 0.024558 0.308498 -0.103728 -292.412075 587.808269 -0.000000 0.317351 0.330671 -0.346961
2.700000 55.016192 -3.910115 -0.000000 0.023468 0.316136 -0.103714 -296.050557 601.798252 -0.000000 0.318342 0.323259 -0.346775
2.705000 56.816539 -0.519968 -0.000000 0.022920 0.323667 -0.103371 -299.492108 616.658843 -0.000000 0.318964 0.315779 -0.346702
2.710000 57.293118 2.099167 -0.000000 0.022007 0.331264 -0.104061 -302.630280 632.342753 -0.000000 0.319174 0.308371 -0.346748
2.715000 56.670943 4.004056 -0.000000 0.022014 0.338889 -0.103932 -305.089766 648.944147 -0.000000 0.319259 0.300882 -0.346744
2.720000 55.259461 5.280533 -0.000000 0.022663 0.346457 -0.103932 -307.271511 666.182603 -0.000000 0.319238 0.293478 -0.347110
2.725000 53.349709 5.845215 -0.000000 0.023442 0.354246 -0.103881 -307.972299 684.484307 -0.000000 0.318645 0.285962 -0.346527
2.730000 51.114065 5.791651 -0.000000 0.024612 0.361948 -0.103969 -307.974496 703.299661 -0.000000 0.317614 0.278532 -0.346738
2.735000 48.632625 5.189054 -0.000000 0.026203 0.369460 -0.104066 -307.227455 722.408209 -0.000000 0.316326 0.271181 -0.346688
2.740000 45.928751 4.117126 -0.000000 0.028332 0.376915 -0.104066 -304.941781 741.807201 -0.000000 0.314714 0.263902 -0.346641
2.745000 42.988621 2.736378 -0.000000 0.030758 0.384173 -0.103991 -300.813795 761.138614 -0.000000 0.312718 0.256563 -0.346444
2.750000 39.800513 1.207477 -0.000000 0.033608 0.391554 -0.104024 -294.404370 779.957708 -0.000000 0.310464 0.249485 -0.346294
2.755000 36.382877 -0.329218 -0.000000 0.036795 0.398687 -0.104055 -285.451994 797.648468 -0.000000 0.307789 0.242397 -0.346201
2.760000 32.786769 -1.784109 -0.000000 0.040251 0.405796 -0.104255 -273.846725 813.495634 -0.000000 0.304818 0.235504 -0.345962
2.765000 29.070060 -3.138448 -0.000000 0.044412 0.412585 -0.104270 -259.470809 826.788954 -0.000000 0.301635 0.228728 -0.345791
2.770000 25.260839 -4.433538 -0.000000 0.048387 0.419449 -0.104199 -242.636198 836.736510 -0.000000 0.298062 0.222165 -0.345545
2.775000 21.338525 -5.777776 -0.000000 0.052766 0.425926 -0.104494 -224.028250 842.594059 -0.000000 0.294354 0.215838 -0.345409
2.780000 17.239818 -7.368768 -0.000000 0.057474 0.432155 -0.104596 -203.305838 844.118651 -0.000000 0.290332 0.209652 -0.345299
2.785000 12.897917 -9.399800 -0.000000 0.062507 0.438118 -0.104608 -181.356336 840.993462 -0.000000 0.286189 0.203673 -0.345151
2.790000 8.233279 -12.056567 -0.000000 0.067924 0.443957 -0.104064 -158.038099 833.414815 -0.000000 0.281775 0.197859 -0.345028
2.795000 3.177423 -15.411780 -0.000000 0.073894 0.449568 -0.104175 -134.200669 821.607983 -0.000000 0.277213 0.192432 -0.344926
2.800000 -2.280013 -19.412450 -0.000000 0.079164 0.454818 -0.104503 -112.126692 805.846760 -0.000000 0.272356 0.187052 -0.344849
2.805000 -8.235447 -23.873875 -0.000000 0.086134 0.459789 -0.104749 -88.543083 787.350728 -0.000000 0.267423 0.182031 -0.344798
2.810000 -14.526773 -28.554553 -0.000000 0.091889 0.464638 -0.104814 -68.598865 766.272983 -0.000000 0.262243 0.177281 -0.344745
2.815000 -21.182374 -33.058990 -0.000000 0.098280 0.469232 -0.104872 -49.331613 743.728606 -0.000000 0.256975 0.172712 -0.344668
2.820000 -28.107359 -36.910673 -0.000000 0.104856 0.473900 -0.104838 -30.990590 720.296836 -0.000000 0.251461 0.168255 -0.344657
2.825000 -35.030313 -39.671921 -0.000000 0.111083 0.478015 -0.104828 -15.811801 696.384725 -0.000000 0.245864 0.164286 -0.344641
2.830000 -41.839959 -40.733879 -0.000000 0.117453 0.481918 -0.104678 -1.907060 672.419662 -0.000000 0.240030 0.160602 -0.344595
2.835000 -48.272098 -39.660368 -0.000000 0.123672 0.485511 -0.104957 10.102862 648.547038 -0.000000 0.234114 0.157152 -0.344624
2.840000 -54.132722 -36.123610 -0.000000 0.129949 0.488685 -0.105325 20.765629 624.780576 -0.000000 0.228052 0.153987 -0.344613
2.845000 -59.236339 -30.040037 -0.000000 0.136309 0.491707 -0.105398 30.260906 601.013976 -0.000000 0.221873 0.151263 -0.344675
2.850000 -63.441516 -21.545658 -0.000000 0.142707 0.494338 -0.105511 38.688460 577.066604 -0.000000 0.215560 0.148838 -0.344546
